<svg width="56" height="56" viewBox="0 0 56 56" fill="none" xmlns="http://www.w3.org/2000/svg">
<path fill-rule="evenodd" clip-rule="evenodd" d="M42.3922 13.131C38.4405 9.31042 33.2384 7.25824 27.7369 7.35204C16.3995 7.55006 7.33124 16.9384 7.52476 28.2805C7.58807 31.9054 8.59617 35.4266 10.4494 38.516L7.71865 49.2238L18.573 46.1715C21.6079 47.7573 25.0049 48.5621 28.4465 48.5043L28.4557 48.5041C39.7908 48.3061 48.8591 38.9178 48.6656 27.5757C48.5696 22.0811 46.3439 16.9515 42.3922 13.131ZM28.3951 45.0328L28.3882 45.0329C25.3201 45.0842 22.2972 44.3141 19.6441 42.7996L19.0144 42.4393L12.5734 44.2502L14.1886 37.912L13.7717 37.273C12.0125 34.5808 11.0548 31.4506 10.9984 28.2198C10.8383 18.7933 18.3734 10.9903 27.8045 10.8256C32.3711 10.7481 36.6939 12.4535 39.9787 15.6279C43.2614 18.8046 45.1144 23.0674 45.192 27.6364C45.352 37.0629 37.817 44.8682 28.3951 45.0328ZM37.5498 32.0628C37.0297 31.8129 34.483 30.6151 34.008 30.4515C33.5352 30.2878 33.1923 30.209 32.8576 30.7283C32.5229 31.2475 31.5578 32.4218 31.2637 32.7708C30.9695 33.1197 30.6701 33.1662 30.1523 32.9186C29.6346 32.6709 27.9685 32.1568 25.9742 30.4405C24.4221 29.1039 23.3617 27.4401 23.0525 26.9297C22.7433 26.4194 23.0066 26.1375 23.261 25.8764C23.4884 25.6432 23.7638 25.2671 24.0152 24.9624C24.2665 24.6578 24.3476 24.4432 24.5134 24.0965C24.6793 23.7498 24.5893 23.4511 24.4542 23.1968C24.3214 22.9401 23.2484 20.4285 22.8019 19.4071C22.3698 18.4177 21.9482 18.558 21.6318 18.5497C21.3337 18.5412 20.9899 18.5426 20.6485 18.5486C20.3048 18.5546 19.7502 18.6926 19.2872 19.2141C18.8242 19.7379 17.5192 21.003 17.5634 23.5326C17.6076 26.0622 19.4925 28.4749 19.7551 28.8141C20.0177 29.1533 23.4766 34.2843 28.671 36.4214C29.9084 36.9293 30.8717 37.2287 31.6205 37.454C32.8578 37.8243 33.9772 37.7475 34.8617 37.6014C35.8467 37.4375 37.8806 36.3064 38.2881 35.0983C38.6956 33.8901 38.6776 32.8613 38.5456 32.6482C38.4135 32.435 38.0652 32.3105 37.5498 32.0628Z" fill="white"/>
</svg>
