<svg width="151" height="143" viewBox="0 0 151 143" fill="none" xmlns="http://www.w3.org/2000/svg">
<path fill-rule="evenodd" clip-rule="evenodd" d="M79.9279 0.781097L76.0548 8.20171L71.931 0.917421L66.8781 1.00356L73.2684 11.4723L67.0805 22.3313L72.1921 22.2442L76.1657 14.7047L80.394 22.1044L85.5055 22.0172L78.9511 11.3755L84.9809 0.694958L79.9279 0.781097ZM37.5813 11.6918L46.7272 30.9595L52.6954 28.1265C54.3762 27.3179 55.705 26.2115 56.6816 24.8074C57.6583 23.4034 58.1819 21.8306 58.2525 20.0891C58.3319 18.3435 57.9466 16.5752 57.0965 14.7843L56.6756 13.8977C55.8255 12.1067 54.6926 10.6879 53.2769 9.64113C51.857 8.58553 50.2965 7.99664 48.5953 7.87446C46.8989 7.73926 45.2037 8.07368 43.5098 8.87771L37.5813 11.6918ZM49.1833 25.8858L43.0777 13.0231L45.0362 12.0934C46.5978 11.3522 48.0251 11.2962 49.3184 11.9255C50.6074 12.546 51.7167 13.8355 52.6464 15.794L53.1301 16.813C54.0086 18.7093 54.2784 20.3594 53.9395 21.7634C53.6006 23.1674 52.6549 24.238 51.1021 24.975L49.1833 25.8858ZM108.011 30.5013L104.009 28.6848L102.021 12.3705L96.2198 25.1487L92.2183 23.3322L101.034 3.91144L105.036 5.72795L107.026 22.075L112.839 9.27013L116.827 11.0806L108.011 30.5013ZM76 119C100.853 119 121 98.8528 121 74C121 49.1472 100.853 29 76 29C51.1472 29 31 49.1472 31 74C31 98.8528 51.1472 119 76 119ZM40.5879 142.103L40.9105 141.635L41.5886 142.103L53.6988 124.546L48.2606 120.795C46.7197 119.744 45.097 119.147 43.3928 119.003C42.9671 118.967 42.5464 118.961 42.1308 118.985C40.5216 118.895 38.9849 119.234 37.5206 120.003C35.9692 120.807 34.6308 122.025 33.5051 123.657L32.9479 124.465C31.8222 126.097 31.1602 127.787 30.9619 129.537C30.758 131.294 31.0285 132.94 31.7735 134.474C32.505 136.011 33.6424 137.312 35.1858 138.376L40.5879 142.103ZM42.1283 122.9C42.3715 122.828 42.6152 122.778 42.8593 122.749C43.677 122.846 44.4999 123.18 45.3277 123.751L47.0761 124.957L39.3142 136.209L38.2077 135.446C36.7849 134.465 36.0225 133.257 35.9206 131.822C35.8132 130.396 36.3749 128.79 37.6059 127.005L38.2464 126.077C39.4491 124.368 40.7431 123.309 42.1283 122.9ZM18.2971 110.576L10.9607 110.89L10.9357 110.848L9.95999 110.89L7.35812 106.558L19.6226 106.437L25.5594 95.4389L26.0865 96.3165L26.5602 95.4389L29.1922 99.8216L24.9225 107.144L32.4148 106.854L32.4376 106.892L33.4155 106.854L36.0476 111.237L23.5495 111.31L17.6803 122.079L17.1557 121.206L16.6796 122.079L14.0777 117.747L18.2971 110.576ZM21.6499 71.7073L21.6594 71.8044L22.6506 71.7073L23.079 76.0809L10.0964 85.8502L22.9123 84.5948L22.9218 84.6919L23.913 84.5948L24.3414 88.9684L3.11487 91.0477L3.10536 90.9506L2.11414 91.0477L1.68573 86.6741L14.696 76.8873L1.85107 78.1455L1.84155 78.0485L0.850333 78.1455L0.423351 73.7865L21.6499 71.7073ZM150.98 73.4685L129.733 71.6059L129.156 78.1871C129.003 80.046 129.285 81.752 130.001 83.3049C130.718 84.8578 131.81 86.1053 133.276 87.0475C134.741 87.9994 136.461 88.562 138.436 88.7351L139.414 88.8208C141.389 88.9939 143.186 88.7348 144.805 88.0435C146.434 87.3531 147.732 86.3052 148.698 84.8998C149.673 83.5051 150.243 81.8737 150.406 80.0059L150.98 73.4685ZM132.866 76.2919L147.05 77.5354L146.861 79.695C146.71 81.417 146.035 82.6764 144.838 83.4733C143.651 84.2711 141.977 84.5753 139.818 84.386L138.694 84.2875C136.614 84.0855 135.054 83.4831 134.014 82.4803C132.975 81.4775 132.53 80.12 132.68 78.4078L132.866 76.2919ZM134.519 108.418L138.96 115.514L136.477 119.915L130.316 109.31L117.821 109.577L120.333 105.125L128.855 105.222L124.363 97.9797L126.874 93.5269L133.109 104.359L145.372 104.146L142.889 108.547L134.519 108.418ZM102.706 122.162L99.1141 124.694L111.403 142.127L114.983 139.603L106.88 128.109L121.986 134.666L125.578 132.134L113.29 114.702L109.698 117.234L117.783 128.703L102.706 122.162Z" fill="white"/>
</svg>
