<svg width="1440" height="1024" viewBox="0 0 1440 1024" fill="none" xmlns="http://www.w3.org/2000/svg">
<g clip-path="url(#clip0)">
<rect width="1440" height="1024" fill="#BD2881"/>
<path fill-rule="evenodd" clip-rule="evenodd" d="M984 0H986V0.0130607C1067.92 1.08356 1134 67.825 1134 150C1134 200.472 1109.07 245.122 1070.86 272.31C1075.23 279.813 1078.33 288.143 1079.88 297.008C1080.25 297.003 1080.63 297 1081 297C1122.42 297 1156 330.579 1156 372C1156 378.914 1155.06 385.609 1153.31 391.966C1214.01 411.176 1258 467.951 1258 535C1258 579.996 1238.19 620.365 1206.81 647.859C1236.56 657.811 1258 685.902 1258 719C1258 760.421 1224.42 794 1183 794C1175.04 794 1167.37 792.761 1160.18 790.465C1191.34 817.951 1211 858.18 1211 903C1211 985.843 1143.84 1053 1061 1053C1027.83 1053 997.17 1042.23 972.332 1024H0V0H984Z" fill="#15325E"/>
</g>
<defs>
<clipPath id="clip0">
<rect width="1440" height="1024" fill="white"/>
</clipPath>
</defs>
</svg>
