<svg width="186" height="162" viewBox="0 0 186 162" fill="none" xmlns="http://www.w3.org/2000/svg">
<path d="M63.7272 36.9595L54.5813 17.6918L60.5098 14.8777C62.2037 14.0737 63.8989 13.7393 65.5953 13.8745C67.2965 13.9966 68.857 14.5855 70.2769 15.6411C71.6926 16.6879 72.8255 18.1068 73.6756 19.8977L74.0965 20.7843C74.9466 22.5752 75.3319 24.3435 75.2525 26.0891C75.1819 27.8306 74.6583 29.4034 73.6816 30.8074C72.705 32.2115 71.3762 33.3179 69.6954 34.1265L63.7272 36.9595ZM60.0777 19.0231L66.1833 31.8858L68.1021 30.975C69.6549 30.238 70.6006 29.1674 70.9395 27.7634C71.2784 26.3594 71.0086 24.7093 70.1301 22.813L69.6464 21.794C68.7167 19.8355 67.6074 18.546 66.3184 17.9255C65.0251 17.2962 63.5978 17.3522 62.0362 18.0934L60.0777 19.0231Z" fill="#BD2881"/>
<path d="M93.0548 14.2017L96.9279 6.7811L101.981 6.69496L95.9511 17.3755L102.506 28.0172L97.394 28.1044L93.1657 20.7047L89.192 28.2442L84.0805 28.3313L90.2684 17.4723L83.8781 7.00356L88.931 6.91742L93.0548 14.2017Z" fill="#BD2881"/>
<path d="M125.011 36.5013L121.009 34.6848L119.02 18.3705L113.22 31.1487L109.218 29.3322L118.034 9.91145L122.036 11.728L124.026 28.075L129.839 15.2701L133.827 17.0806L125.011 36.5013Z" fill="#BD2881"/>
<circle cx="93" cy="80" r="45" fill="white"/>
<path d="M69.6982 130.546L57.588 148.103L52.1859 144.376C50.6425 143.312 49.5051 142.011 48.7737 140.474C48.0286 138.94 47.7581 137.294 47.962 135.537C48.1603 133.787 48.8223 132.097 49.948 130.465L50.5052 129.657C51.6309 128.025 52.9694 126.807 54.5207 126.003C56.064 125.193 57.6878 124.86 59.3921 125.003C61.0964 125.147 62.719 125.744 64.26 126.795L69.6982 130.546ZM55.9917 142.677L64.0762 130.957L62.3278 129.751C60.913 128.775 59.513 128.491 58.1277 128.9C56.7424 129.309 55.4484 130.368 54.2457 132.077L53.6053 133.005C52.3743 134.79 51.8125 136.396 51.92 137.822C52.0219 139.257 52.7842 140.465 54.2071 141.446L55.9917 142.677Z" fill="#093FFF"/>
<path d="M35.323 116.533L26.9601 116.89L24.3582 112.558L36.6227 112.437L42.5595 101.439L45.1916 105.822L40.8987 113.184L49.4149 112.854L52.0469 117.237L39.5488 117.31L33.6797 128.079L31.0778 123.747L35.323 116.533Z" fill="#093FFF"/>
<path d="M38.65 77.7073L39.0784 82.0809L25.946 91.9629L39.9124 90.5948L40.3408 94.9684L19.1142 97.0477L18.6858 92.6741L31.8459 82.7746L17.8504 84.1455L17.4234 79.7865L38.65 77.7073Z" fill="#093FFF"/>
<path d="M146.733 77.6059L167.98 79.4685L167.406 86.0059C167.243 87.8737 166.673 89.5051 165.698 90.8998C164.732 92.3052 163.434 93.3531 161.805 94.0435C160.186 94.7349 158.389 94.9939 156.414 94.8208L155.436 94.7351C153.461 94.562 151.741 93.9994 150.276 93.0475C148.81 92.1053 147.718 90.8578 147.001 89.3049C146.285 87.752 146.003 86.046 146.156 84.1871L146.733 77.6059ZM164.05 83.5354L149.866 82.2919L149.68 84.4078C149.53 86.12 149.975 87.4775 151.014 88.4803C152.054 89.4831 153.614 90.0855 155.694 90.2875L156.817 90.386C158.977 90.5753 160.651 90.2711 161.838 89.4733C163.035 88.6764 163.71 87.417 163.86 85.6951L164.05 83.5354Z" fill="#F3EA09"/>
<path d="M151.519 114.418L155.959 121.514L153.477 125.915L147.316 115.31L134.821 115.577L137.332 111.125L145.854 111.222L141.363 103.98L143.874 99.5269L150.109 110.359L162.372 110.146L159.889 114.547L151.519 114.418Z" fill="#F3EA09"/>
<path d="M116.114 130.694L119.706 128.162L134.783 134.703L126.698 123.234L130.29 120.702L142.578 138.134L138.986 140.666L123.88 134.109L131.982 145.603L128.403 148.127L116.114 130.694Z" fill="#F3EA09"/>
</svg>
