<svg width="64" height="53" viewBox="0 0 64 53" fill="none" xmlns="http://www.w3.org/2000/svg">
<path d="M2.03125 30V7.25H9.03125C11.0312 7.25 12.8177 7.70312 14.3906 8.60938C15.974 9.50521 17.2083 10.7865 18.0938 12.4531C18.9792 14.1094 19.4219 15.9948 19.4219 18.1094V19.1562C19.4219 21.2708 18.9844 23.151 18.1094 24.7969C17.2448 26.4427 16.0208 27.7188 14.4375 28.625C12.8542 29.5312 11.0677 29.9896 9.07812 30H2.03125ZM6.71875 11.0469V26.2344H8.98438C10.8177 26.2344 12.2188 25.6354 13.1875 24.4375C14.1562 23.2396 14.651 21.526 14.6719 19.2969V18.0938C14.6719 15.7812 14.1927 14.0312 13.2344 12.8438C12.276 11.6458 10.875 11.0469 9.03125 11.0469H6.71875ZM30.6406 15.0938L34.9062 7.25H40.2969L33.6719 18.5312L40.4688 30H35.0156L30.6406 22.0312L26.2656 30H20.8125L27.6094 18.5312L20.9844 7.25H26.375L30.6406 15.0938ZM61.3438 30H56.6562L47.5312 15.0312V30H42.8438V7.25H47.5312L56.6719 22.25V7.25H61.3438V30Z" fill="white"/>
<line x1="2" y1="34" x2="61" y2="35" stroke="white" stroke-width="2"/>
<path d="M10.6426 48.2695C10.6426 47.7161 10.4473 47.293 10.0566 47C9.66602 46.7005 8.96289 46.388 7.94727 46.0625C6.93164 45.7305 6.1276 45.4049 5.53516 45.0859C3.92057 44.2135 3.11328 43.0384 3.11328 41.5605C3.11328 40.7923 3.32812 40.1087 3.75781 39.5098C4.19401 38.9043 4.81576 38.4323 5.62305 38.0938C6.43685 37.7552 7.34831 37.5859 8.35742 37.5859C9.37305 37.5859 10.278 37.7715 11.0723 38.1426C11.8665 38.5072 12.4818 39.0247 12.918 39.6953C13.3607 40.3659 13.582 41.1276 13.582 41.9805H10.6523C10.6523 41.3294 10.4473 40.8249 10.0371 40.4668C9.62695 40.1022 9.05078 39.9199 8.30859 39.9199C7.59245 39.9199 7.03581 40.0729 6.63867 40.3789C6.24154 40.6784 6.04297 41.0755 6.04297 41.5703C6.04297 42.0326 6.27409 42.4199 6.73633 42.7324C7.20508 43.0449 7.89193 43.3379 8.79688 43.6113C10.4635 44.1126 11.6777 44.7344 12.4395 45.4766C13.2012 46.2188 13.582 47.1432 13.582 48.25C13.582 49.4805 13.1165 50.4473 12.1855 51.1504C11.2546 51.847 10.0013 52.1953 8.42578 52.1953C7.33203 52.1953 6.33594 51.9967 5.4375 51.5996C4.53906 51.196 3.85221 50.6458 3.37695 49.9492C2.9082 49.2526 2.67383 48.4453 2.67383 47.5273H5.61328C5.61328 49.0964 6.55078 49.8809 8.42578 49.8809C9.1224 49.8809 9.66602 49.7409 10.0566 49.4609C10.4473 49.1745 10.6426 48.7773 10.6426 48.2695ZM18.7676 38.8359V41.4336H20.5742V43.5039H18.7676V48.7773C18.7676 49.168 18.8424 49.4479 18.9922 49.6172C19.1419 49.7865 19.4284 49.8711 19.8516 49.8711C20.1641 49.8711 20.4408 49.8483 20.6816 49.8027V51.9414C20.1283 52.1107 19.5586 52.1953 18.9727 52.1953C16.9935 52.1953 15.9844 51.196 15.9453 49.1973V43.5039H14.4023V41.4336H15.9453V38.8359H18.7676ZM28.4746 50.9258C27.778 51.7721 26.8145 52.1953 25.584 52.1953C24.4512 52.1953 23.5853 51.8698 22.9863 51.2188C22.3939 50.5677 22.0911 49.6139 22.0781 48.3574V41.4336H24.9004V48.2598C24.9004 49.36 25.4017 49.9102 26.4043 49.9102C27.3613 49.9102 28.0189 49.5781 28.377 48.9141V41.4336H31.209V52H28.5527L28.4746 50.9258ZM32.8984 46.6387C32.8984 44.9915 33.2663 43.6797 34.002 42.7031C34.7441 41.7266 35.7565 41.2383 37.0391 41.2383C38.0677 41.2383 38.9173 41.6224 39.5879 42.3906V37H42.4199V52H39.8711L39.7344 50.877C39.0312 51.7559 38.1263 52.1953 37.0195 52.1953C35.776 52.1953 34.7767 51.707 34.0215 50.7305C33.2728 49.7474 32.8984 48.3835 32.8984 46.6387ZM35.7207 46.8438C35.7207 47.8333 35.8932 48.5918 36.2383 49.1191C36.5833 49.6465 37.0846 49.9102 37.7422 49.9102C38.6146 49.9102 39.2298 49.5423 39.5879 48.8066V44.6367C39.2363 43.901 38.6276 43.5332 37.7617 43.5332C36.401 43.5332 35.7207 44.6367 35.7207 46.8438ZM47.5859 52H44.7539V41.4336H47.5859V52ZM44.5879 38.6992C44.5879 38.276 44.7279 37.9277 45.0078 37.6543C45.2943 37.3809 45.6816 37.2441 46.1699 37.2441C46.6517 37.2441 47.0358 37.3809 47.3223 37.6543C47.6087 37.9277 47.752 38.276 47.752 38.6992C47.752 39.1289 47.6055 39.4805 47.3125 39.7539C47.026 40.0273 46.6452 40.1641 46.1699 40.1641C45.6947 40.1641 45.3105 40.0273 45.0176 39.7539C44.7311 39.4805 44.5879 39.1289 44.5879 38.6992ZM49.4805 46.6191C49.4805 45.571 49.6823 44.6367 50.0859 43.8164C50.4896 42.9961 51.069 42.3613 51.8242 41.9121C52.5859 41.4629 53.4681 41.2383 54.4707 41.2383C55.8965 41.2383 57.0586 41.6745 57.957 42.5469C58.862 43.4193 59.3665 44.6042 59.4707 46.1016L59.4902 46.8242C59.4902 48.4453 59.0378 49.7474 58.1328 50.7305C57.2279 51.707 56.0137 52.1953 54.4902 52.1953C52.9668 52.1953 51.7493 51.707 50.8379 50.7305C49.9329 49.7539 49.4805 48.4258 49.4805 46.7461V46.6191ZM52.3027 46.8242C52.3027 47.8268 52.4915 48.5951 52.8691 49.1289C53.2467 49.6562 53.7871 49.9199 54.4902 49.9199C55.1738 49.9199 55.7077 49.6595 56.0918 49.1387C56.4759 48.6113 56.668 47.7715 56.668 46.6191C56.668 45.6361 56.4759 44.8743 56.0918 44.334C55.7077 43.7936 55.1673 43.5234 54.4707 43.5234C53.7806 43.5234 53.2467 43.7936 52.8691 44.334C52.4915 44.8678 52.3027 45.6979 52.3027 46.8242Z" fill="#FFF2F2"/>
</svg>
